<svg width="401" height="353" viewBox="0 0 401 353" fill="none" xmlns="http://www.w3.org/2000/svg">
<path fill-rule="evenodd" clip-rule="evenodd" d="M203.286 130.346C200.41 135.347 197.532 140.348 194.655 145.352L186.397 159.715L118.852 277.159C104.149 302.183 89.4455 327.209 74.7418 352.233C58.8638 352.233 42.9865 352.233 27.1111 352.233C3.43424 352.233 -6.43093 332.366 4.35639 313.604L116.666 118.318L138.716 79.9751C167.659 81.757 185.743 98.275 203.286 130.346Z" fill="url(#paint0_linear_49_90)"/>
<path fill-rule="evenodd" clip-rule="evenodd" d="M287.719 277.16C284.741 271.983 281.763 266.801 278.782 261.619L275.243 255.462L203.287 130.346C185.744 98.2755 167.66 81.7575 138.717 79.9756L154.304 52.8752C154.874 51.883 155.443 50.8895 156.017 49.898C194.539 -17.0883 212.482 -16.3124 250.799 50.3123L346.205 216.216L361.218 242.315C354.445 272.848 331.444 277.16 287.719 277.16Z" fill="url(#paint1_linear_49_90)"/>
<path fill-rule="evenodd" clip-rule="evenodd" d="M381.254 277.159C384.236 282.347 387.222 287.532 390.204 292.72C407.717 323.178 406.598 352.233 362.329 352.233C296.029 352.233 229.727 352.233 163.424 352.233C136.22 352.233 124.861 332.373 137.618 309.827C153.418 281.918 169.214 254.004 185.014 226.092C194.757 208.873 209.769 208.457 219.949 225.591C230.159 242.78 240.369 259.971 250.581 277.159C262.959 277.159 275.339 277.159 287.718 277.159C331.443 277.159 354.444 272.847 361.217 242.314L378.938 273.129C379.711 274.475 380.485 275.816 381.254 277.159Z" fill="url(#paint2_linear_49_90)"/>
<defs>
<linearGradient id="paint0_linear_49_90" x1="25.2028" y1="367.45" x2="165.301" y2="98.908" gradientUnits="userSpaceOnUse">
<stop stop-color="#05BFE4"/>
<stop offset="1" stop-color="#015797"/>
</linearGradient>
<linearGradient id="paint1_linear_49_90" x1="197.372" y1="43.8602" x2="302.392" y2="262.327" gradientUnits="userSpaceOnUse">
<stop stop-color="#03BDE2"/>
<stop offset="1" stop-color="#0183E3"/>
</linearGradient>
<linearGradient id="paint2_linear_49_90" x1="378.473" y1="282.969" x2="158.207" y2="282.552" gradientUnits="userSpaceOnUse">
<stop stop-color="#06C1E6"/>
<stop offset="1" stop-color="#0283E4"/>
</linearGradient>
</defs>
</svg>
